<svg xmlns="http://www.w3.org/2000/svg" xmlns:xlink="http://www.w3.org/1999/xlink" width="1080" zoomAndPan="magnify" viewBox="0 0 810 1012.49997" height="1350" preserveAspectRatio="xMidYMid meet" version="1.0"><defs><clipPath id="dd8470f516"><path d="M 81.230469 150.269531 L 695.175781 150.269531 L 695.175781 764.21875 L 81.230469 764.21875 Z M 81.230469 150.269531 " clip-rule="nonzero"/></clipPath><clipPath id="7a0dc64ccd"><path d="M 388.167969 764.21875 C 557.722656 764.21875 695.175781 626.765625 695.175781 457.210938 C 695.175781 287.652344 557.722656 150.199219 388.167969 150.199219 C 218.613281 150.199219 81.160156 287.652344 81.160156 457.210938 C 81.160156 626.765625 218.613281 764.21875 388.167969 764.21875 Z M 388.167969 764.21875 " clip-rule="nonzero"/></clipPath><clipPath id="c2eefffa14"><path d="M 357 483 L 548 483 L 548 668 L 357 668 Z M 357 483 " clip-rule="nonzero"/></clipPath><clipPath id="7b4b199d7f"><path d="M 260.84375 150.203125 L 666.445312 302.59375 L 515.371094 704.6875 L 109.769531 552.296875 Z M 260.84375 150.203125 " clip-rule="nonzero"/></clipPath><clipPath id="391f688a6c"><path d="M 260.84375 150.203125 L 666.445312 302.59375 L 515.371094 704.6875 L 109.769531 552.296875 Z M 260.84375 150.203125 " clip-rule="nonzero"/></clipPath><clipPath id="349c4e4022"><path d="M 464 536 L 525 536 L 525 582 L 464 582 Z M 464 536 " clip-rule="nonzero"/></clipPath><clipPath id="ddb2ffc314"><path d="M 260.84375 150.203125 L 666.445312 302.59375 L 515.371094 704.6875 L 109.769531 552.296875 Z M 260.84375 150.203125 " clip-rule="nonzero"/></clipPath><clipPath id="0a2510481b"><path d="M 260.84375 150.203125 L 666.445312 302.59375 L 515.371094 704.6875 L 109.769531 552.296875 Z M 260.84375 150.203125 " clip-rule="nonzero"/></clipPath><clipPath id="c84798b3c8"><path d="M 422 490 L 502 490 L 502 524 L 422 524 Z M 422 490 " clip-rule="nonzero"/></clipPath><clipPath id="b4193cc02c"><path d="M 260.84375 150.203125 L 666.445312 302.59375 L 515.371094 704.6875 L 109.769531 552.296875 Z M 260.84375 150.203125 " clip-rule="nonzero"/></clipPath><clipPath id="6c854603e2"><path d="M 260.84375 150.203125 L 666.445312 302.59375 L 515.371094 704.6875 L 109.769531 552.296875 Z M 260.84375 150.203125 " clip-rule="nonzero"/></clipPath><clipPath id="d586e083b8"><path d="M 148 374 L 339 374 L 339 565 L 148 565 Z M 148 374 " clip-rule="nonzero"/></clipPath><clipPath id="e0e708ac89"><path d="M 260.84375 150.203125 L 666.445312 302.59375 L 515.371094 704.6875 L 109.769531 552.296875 Z M 260.84375 150.203125 " clip-rule="nonzero"/></clipPath><clipPath id="23ea0fed8b"><path d="M 260.84375 150.203125 L 666.445312 302.59375 L 515.371094 704.6875 L 109.769531 552.296875 Z M 260.84375 150.203125 " clip-rule="nonzero"/></clipPath><clipPath id="59d2059178"><path d="M 260 450 L 322 450 L 322 497 L 260 497 Z M 260 450 " clip-rule="nonzero"/></clipPath><clipPath id="223d725134"><path d="M 260.84375 150.203125 L 666.445312 302.59375 L 515.371094 704.6875 L 109.769531 552.296875 Z M 260.84375 150.203125 " clip-rule="nonzero"/></clipPath><clipPath id="f5e4342c7d"><path d="M 260.84375 150.203125 L 666.445312 302.59375 L 515.371094 704.6875 L 109.769531 552.296875 Z M 260.84375 150.203125 " clip-rule="nonzero"/></clipPath><clipPath id="2c143b5cfd"><path d="M 244 386 L 311 386 L 311 437 L 244 437 Z M 244 386 " clip-rule="nonzero"/></clipPath><clipPath id="53d73cbcd4"><path d="M 260.84375 150.203125 L 666.445312 302.59375 L 515.371094 704.6875 L 109.769531 552.296875 Z M 260.84375 150.203125 " clip-rule="nonzero"/></clipPath><clipPath id="7978f31841"><path d="M 260.84375 150.203125 L 666.445312 302.59375 L 515.371094 704.6875 L 109.769531 552.296875 Z M 260.84375 150.203125 " clip-rule="nonzero"/></clipPath><clipPath id="fc2c4e47e2"><path d="M 283 260 L 611 260 L 611 513 L 283 513 Z M 283 260 " clip-rule="nonzero"/></clipPath><clipPath id="98c2aba21c"><path d="M 260.84375 150.203125 L 666.445312 302.59375 L 515.371094 704.6875 L 109.769531 552.296875 Z M 260.84375 150.203125 " clip-rule="nonzero"/></clipPath><clipPath id="96dd977c03"><path d="M 260.84375 150.203125 L 666.445312 302.59375 L 515.371094 704.6875 L 109.769531 552.296875 Z M 260.84375 150.203125 " clip-rule="nonzero"/></clipPath></defs><g clip-path="url(#dd8470f516)"><g clip-path="url(#7a0dc64ccd)"><path stroke-linecap="butt" transform="matrix(-0.74963, 0, 0, -0.74963, 695.176985, 764.217554)" fill="none" stroke-linejoin="miter" d="M 409.54753 -0.00159532 C 183.362957 -0.00159532 0.00160599 183.359755 0.00160599 409.544329 C 0.00160599 635.734114 183.362957 819.095464 409.54753 819.095464 C 635.732104 819.095464 819.093455 635.734114 819.093455 409.544329 C 819.093455 183.359755 635.732104 -0.00159532 409.54753 -0.00159532 Z M 409.54753 -0.00159532 " stroke="#fffdff" stroke-width="20" stroke-opacity="1" stroke-miterlimit="4"/></g></g><g clip-path="url(#c2eefffa14)"><g clip-path="url(#7b4b199d7f)"><g clip-path="url(#391f688a6c)"><path fill="#fffdff" d="M 547.492188 570.414062 C 547.492188 570.414062 547.328125 513.261719 500.25 510.597656 C 500.25 510.597656 477.730469 509.75 455.96875 493.558594 C 455.332031 493.121094 454.695312 492.679688 454.058594 492.242188 C 454.058594 492.242188 437.828125 475.726562 406.105469 489.246094 C 406.105469 489.246094 358.332031 509.761719 357.675781 572.820312 C 357.675781 572.820312 358.03125 637.460938 405.601562 656.9375 C 405.601562 656.9375 466.515625 686.230469 509.054688 647.125 C 551.59375 608.015625 547.492188 570.414062 547.492188 570.414062 Z M 547.492188 570.414062 " fill-opacity="1" fill-rule="nonzero"/></g></g></g><g clip-path="url(#349c4e4022)"><g clip-path="url(#ddb2ffc314)"><g clip-path="url(#0a2510481b)"><path fill="#a40813" d="M 518.011719 569.957031 C 518.011719 569.957031 541.300781 534.636719 502.539062 536.5 C 502.539062 536.5 461.625 537.152344 464.15625 559.738281 C 464.15625 559.738281 470.140625 572.605469 485.457031 578.761719 C 485.632812 578.828125 500.308594 589.351562 518.011719 569.957031 Z M 518.011719 569.957031 " fill-opacity="1" fill-rule="nonzero"/></g></g></g><g clip-path="url(#c84798b3c8)"><g clip-path="url(#b4193cc02c)"><g clip-path="url(#6c854603e2)"><path fill="#a40813" d="M 501.035156 516.503906 C 501.035156 516.503906 471.308594 528.972656 450.773438 519.652344 C 450.773438 519.652344 406.007812 501.230469 429.148438 491.894531 C 429.148438 491.894531 441.835938 489.050781 445.699219 492.105469 C 445.699219 492.105469 427.152344 522.796875 501.035156 516.503906 Z M 501.035156 516.503906 " fill-opacity="1" fill-rule="nonzero"/></g></g></g><g clip-path="url(#d586e083b8)"><g clip-path="url(#e0e708ac89)"><g clip-path="url(#23ea0fed8b)"><path fill="#fffdff" d="M 332.917969 503.820312 C 332.917969 503.820312 354.613281 450.871094 312.246094 430.34375 C 312.246094 430.34375 291.949219 420.914062 277.871094 397.597656 C 277.476562 397.046875 277.148438 396.324219 276.820312 395.597656 C 276.820312 395.597656 268.25 374.148438 233.703125 374.390625 C 233.703125 374.390625 181.816406 374.929688 156.78125 433.035156 C 156.78125 433.035156 132.335938 492.761719 168.769531 529.089844 C 168.769531 529.089844 213.929688 579.511719 268.265625 559.660156 C 322.601562 539.808594 332.917969 503.820312 332.917969 503.820312 Z M 332.917969 503.820312 " fill-opacity="1" fill-rule="nonzero"/></g></g></g><g clip-path="url(#59d2059178)"><g clip-path="url(#223d725134)"><g clip-path="url(#f5e4342c7d)"><path fill="#a40813" d="M 306.058594 492.125 C 306.058594 492.125 341.191406 468.464844 304.480469 455.273438 C 304.480469 455.273438 266.476562 440.191406 260.25 462.09375 C 260.25 462.09375 260.964844 476.183594 272.632812 487.78125 C 272.632812 487.78125 282.261719 503.214844 306.058594 492.125 Z M 306.058594 492.125 " fill-opacity="1" fill-rule="nonzero"/></g></g></g><g clip-path="url(#2c143b5cfd)"><g clip-path="url(#53d73cbcd4)"><g clip-path="url(#7978f31841)"><path fill="#a40813" d="M 310.835938 436.226562 C 310.835938 436.226562 278.550781 436.316406 263.261719 419.953125 C 263.261719 419.953125 229 385.84375 253.910156 386.191406 C 253.910156 386.191406 266.53125 388.328125 269.09375 392.695312 C 268.984375 392.453125 240.175781 413.683594 310.835938 436.226562 Z M 310.835938 436.226562 " fill-opacity="1" fill-rule="nonzero"/></g></g></g><g clip-path="url(#fc2c4e47e2)"><g clip-path="url(#98c2aba21c)"><g clip-path="url(#96dd977c03)"><path fill="#fffdff" d="M 470.683594 512.511719 C 470.683594 512.511719 521.171875 397.859375 469.5625 309.15625 C 469.5625 309.15625 505.398438 389.730469 574.078125 382.878906 C 574.078125 382.878906 579.984375 383.695312 610.121094 377.589844 C 610.121094 377.589844 585.875 369.082031 567.136719 321.375 C 567.136719 321.375 538.734375 254.613281 487.503906 261.40625 C 487.503906 261.40625 462.78125 270.148438 450.296875 266.058594 C 450.296875 266.058594 518.867188 295.226562 522.488281 329.839844 C 522.488281 329.839844 490.605469 279.800781 446.339844 276.589844 C 446.339844 276.589844 366.804688 402.964844 283.738281 419.835938 L 296.398438 427.195312 C 296.398438 427.195312 366.5 396.839844 403.25 349.148438 C 403.25 349.148438 440.046875 300.269531 445.582031 290.328125 C 445.582031 290.328125 476.972656 321.957031 484.839844 407.648438 C 484.839844 407.648438 483.46875 463.023438 464.429688 509.960938 L 470.75 512.335938 Z M 470.683594 512.511719 " fill-opacity="1" fill-rule="nonzero"/></g></g></g></svg>